<svg xmlns="http://www.w3.org/2000/svg" xmlns:xlink="http://www.w3.org/1999/xlink" width="1080" zoomAndPan="magnify" viewBox="0 0 810 809.999993" height="1080" preserveAspectRatio="xMidYMid meet" version="1.0"><path fill="#103acd" d="M 810 126.5625 L 810 303.75 C 810 317.722656 798.683594 329.0625 784.6875 329.0625 C 742.820312 329.0625 708.75 363.132812 708.75 405 C 708.75 446.867188 742.820312 480.9375 784.6875 480.9375 C 798.683594 480.9375 810 492.277344 810 506.25 L 810 784.6875 C 810 798.660156 798.683594 810 784.6875 810 L 506.25 810 C 492.253906 810 480.9375 798.660156 480.9375 784.6875 C 480.9375 742.820312 446.867188 708.75 405 708.75 C 363.132812 708.75 329.0625 742.820312 329.0625 784.6875 C 329.0625 798.660156 317.746094 810 303.75 810 L 126.5625 810 C 112.566406 810 101.25 798.660156 101.25 784.6875 L 101.25 529.007812 C 43.5625 517.261719 0 466.128906 0 405 C 0 343.871094 43.5625 292.738281 101.25 280.992188 L 101.25 126.5625 C 101.25 112.589844 112.566406 101.25 126.5625 101.25 L 280.992188 101.25 C 292.765625 43.5625 343.871094 0 405 0 C 466.128906 0 517.261719 43.5625 529.007812 101.25 L 784.6875 101.25 C 798.683594 101.25 810 112.589844 810 126.5625 Z M 759.375 280.992188 L 759.375 151.875 L 506.25 151.875 C 492.253906 151.875 480.9375 140.535156 480.9375 126.5625 C 480.9375 84.695312 446.867188 50.625 405 50.625 C 363.132812 50.625 329.0625 84.695312 329.0625 126.5625 C 329.0625 140.535156 317.746094 151.875 303.75 151.875 L 151.875 151.875 L 151.875 303.75 C 151.875 317.722656 140.558594 329.0625 126.5625 329.0625 C 84.695312 329.0625 50.625 363.132812 50.625 405 C 50.625 446.867188 84.695312 480.9375 126.5625 480.9375 C 140.558594 480.9375 151.875 492.277344 151.875 506.25 L 151.875 759.375 L 280.992188 759.375 C 292.738281 701.6875 343.871094 658.125 405 658.125 C 466.128906 658.125 517.261719 701.6875 529.007812 759.375 L 759.375 759.375 L 759.375 529.007812 C 701.6875 517.261719 658.125 466.105469 658.125 405 C 658.125 343.894531 701.6875 292.738281 759.375 280.992188 Z M 759.375 280.992188 " fill-opacity="1" fill-rule="nonzero"/></svg>