<svg 
    xmlns="http://www.w3.org/2000/svg"
    xmlns:xlink="http://www.w3.org/1999/xlink"
    width="1080"
    zoomAndPan="magnify"
    viewBox="0 0 810 809.999993"
    height="1080"
    preserveAspectRatio="xMidYMid meet"
    version="1.0">
    <path 
        fill="#00a607"
        d="M 126.5625 0 L 303.75 0 C 317.722656 0 329.0625 11.316406 329.0625 25.3125 C 329.0625 67.179688 363.132812 101.25 405 101.25 C 446.867188 101.25 480.9375 67.179688 480.9375 25.3125 C 480.9375 11.316406 492.277344 0 506.25 0 L 784.6875 0 C 798.660156 0 810 11.316406 810 25.3125 L 810 303.75 C 810 317.746094 798.660156 329.0625 784.6875 329.0625 C 742.820312 329.0625 708.75 363.132812 708.75 405 C 708.75 446.867188 742.820312 480.9375 784.6875 480.9375 C 798.660156 480.9375 810 492.253906 810 506.25 L 810 683.4375 C 810 697.433594 798.660156 708.75 784.6875 708.75 L 529.007812 708.75 C 517.261719 766.4375 466.128906 810 405 810 C 343.871094 810 292.738281 766.4375 280.992188 708.75 L 126.5625 708.75 C 112.589844 708.75 101.25 697.433594 101.25 683.4375 L 101.25 529.007812 C 43.5625 517.234375 0 466.128906 0 405 C 0 343.871094 43.5625 292.738281 101.25 280.992188 L 101.25 25.3125 C 101.25 11.316406 112.589844 0 126.5625 0 Z M 280.992188 50.625 L 151.875 50.625 L 151.875 303.75 C 151.875 317.746094 140.535156 329.0625 126.5625 329.0625 C 84.695312 329.0625 50.625 363.132812 50.625 405 C 50.625 446.867188 84.695312 480.9375 126.5625 480.9375 C 140.535156 480.9375 151.875 492.253906 151.875 506.25 L 151.875 658.125 L 303.75 658.125 C 317.722656 658.125 329.0625 669.441406 329.0625 683.4375 C 329.0625 725.304688 363.132812 759.375 405 759.375 C 446.867188 759.375 480.9375 725.304688 480.9375 683.4375 C 480.9375 669.441406 492.277344 658.125 506.25 658.125 L 759.375 658.125 L 759.375 529.007812 C 701.6875 517.261719 658.125 466.128906 658.125 405 C 658.125 343.871094 701.6875 292.738281 759.375 280.992188 L 759.375 50.625 L 529.007812 50.625 C 517.261719 108.3125 466.105469 151.875 405 151.875 C 343.894531 151.875 292.738281 108.3125 280.992188 50.625 Z M 280.992188 50.625 " 
        fill-opacity="1"
        fill-rule="nonzero"/>
</svg>