<svg xmlns="http://www.w3.org/2000/svg" xmlns:xlink="http://www.w3.org/1999/xlink" width="1080" zoomAndPan="magnify" viewBox="0 0 810 809.999993" height="1080" preserveAspectRatio="xMidYMid meet" version="1.0"><path fill="#9d2adb" d="M 0 683.4375 L 0 506.25 C 0 492.277344 11.316406 480.9375 25.3125 480.9375 C 67.179688 480.9375 101.25 446.867188 101.25 405 C 101.25 363.132812 67.179688 329.0625 25.3125 329.0625 C 11.316406 329.0625 0 317.722656 0 303.75 L 0 25.3125 C 0 11.339844 11.316406 0 25.3125 0 L 303.75 0 C 317.746094 0 329.0625 11.339844 329.0625 25.3125 C 329.0625 67.179688 363.132812 101.25 405 101.25 C 446.867188 101.25 480.9375 67.179688 480.9375 25.3125 C 480.9375 11.339844 492.253906 0 506.25 0 L 683.4375 0 C 697.433594 0 708.75 11.339844 708.75 25.3125 L 708.75 280.992188 C 766.4375 292.738281 810 343.871094 810 405 C 810 466.128906 766.4375 517.261719 708.75 529.007812 L 708.75 683.4375 C 708.75 697.410156 697.433594 708.75 683.4375 708.75 L 529.007812 708.75 C 517.234375 766.4375 466.128906 810 405 810 C 343.871094 810 292.738281 766.4375 280.992188 708.75 L 25.3125 708.75 C 11.316406 708.75 0 697.410156 0 683.4375 Z M 50.625 529.007812 L 50.625 658.125 L 303.75 658.125 C 317.746094 658.125 329.0625 669.464844 329.0625 683.4375 C 329.0625 725.304688 363.132812 759.375 405 759.375 C 446.867188 759.375 480.9375 725.304688 480.9375 683.4375 C 480.9375 669.464844 492.253906 658.125 506.25 658.125 L 658.125 658.125 L 658.125 506.25 C 658.125 492.277344 669.441406 480.9375 683.4375 480.9375 C 725.304688 480.9375 759.375 446.867188 759.375 405 C 759.375 363.132812 725.304688 329.0625 683.4375 329.0625 C 669.441406 329.0625 658.125 317.722656 658.125 303.75 L 658.125 50.625 L 529.007812 50.625 C 517.261719 108.3125 466.128906 151.875 405 151.875 C 343.871094 151.875 292.738281 108.3125 280.992188 50.625 L 50.625 50.625 L 50.625 280.992188 C 108.3125 292.738281 151.875 343.894531 151.875 405 C 151.875 466.105469 108.3125 517.261719 50.625 529.007812 Z M 50.625 529.007812 " fill-opacity="1" fill-rule="nonzero"/></svg>