<svg xmlns="http://www.w3.org/2000/svg" xmlns:xlink="http://www.w3.org/1999/xlink" width="1080" zoomAndPan="magnify" viewBox="0 0 810 809.999993" height="1080" preserveAspectRatio="xMidYMid meet" version="1.0"><path fill="#ff7300" d="M 683.4375 810 L 506.25 810 C 492.277344 810 480.9375 798.683594 480.9375 784.6875 C 480.9375 742.820312 446.867188 708.75 405 708.75 C 363.132812 708.75 329.0625 742.820312 329.0625 784.6875 C 329.0625 798.683594 317.722656 810 303.75 810 L 25.3125 810 C 11.339844 810 0 798.683594 0 784.6875 L 0 506.25 C 0 492.253906 11.339844 480.9375 25.3125 480.9375 C 67.179688 480.9375 101.25 446.867188 101.25 405 C 101.25 363.132812 67.179688 329.0625 25.3125 329.0625 C 11.339844 329.0625 0 317.746094 0 303.75 L 0 126.5625 C 0 112.566406 11.339844 101.25 25.3125 101.25 L 280.992188 101.25 C 292.738281 43.5625 343.871094 0 405 0 C 466.128906 0 517.261719 43.5625 529.007812 101.25 L 683.4375 101.25 C 697.410156 101.25 708.75 112.566406 708.75 126.5625 L 708.75 280.992188 C 766.4375 292.765625 810 343.871094 810 405 C 810 466.128906 766.4375 517.261719 708.75 529.007812 L 708.75 784.6875 C 708.75 798.683594 697.410156 810 683.4375 810 Z M 529.007812 759.375 L 658.125 759.375 L 658.125 506.25 C 658.125 492.253906 669.464844 480.9375 683.4375 480.9375 C 725.304688 480.9375 759.375 446.867188 759.375 405 C 759.375 363.132812 725.304688 329.0625 683.4375 329.0625 C 669.464844 329.0625 658.125 317.746094 658.125 303.75 L 658.125 151.875 L 506.25 151.875 C 492.277344 151.875 480.9375 140.558594 480.9375 126.5625 C 480.9375 84.695312 446.867188 50.625 405 50.625 C 363.132812 50.625 329.0625 84.695312 329.0625 126.5625 C 329.0625 140.558594 317.722656 151.875 303.75 151.875 L 50.625 151.875 L 50.625 280.992188 C 108.3125 292.738281 151.875 343.871094 151.875 405 C 151.875 466.128906 108.3125 517.261719 50.625 529.007812 L 50.625 759.375 L 280.992188 759.375 C 292.738281 701.6875 343.894531 658.125 405 658.125 C 466.105469 658.125 517.261719 701.6875 529.007812 759.375 Z M 529.007812 759.375 " fill-opacity="1" fill-rule="nonzero"/></svg>